<svg viewBox="0 0 24 24" width="24px" fill="#E60C41" color="text" xmlns="http://www.w3.org/2000/svg">
    <g id="gate-of-india-(1)">
        <path id="Path"
              d="M20.914 19.828 L2.086 19.828 C1.762 19.828 1.5 20.09 1.5 20.414 1.5 20.738 1.762 21 2.086 21 L20.914 21 C21.238 21 21.5 20.738 21.5 20.414 21.5 20.09 21.238 19.828 20.914 19.828 Z"
              fill-opacity="1" stroke="none"></path>
        <path id="Path-1"
              d="M17.107 2.841 C17.107 2.518 16.844 2.255 16.521 2.255 L13.874 2.255 C13.529 1.223 12.554 1 12.128 1 L10.872 1 C9.773 1 9.262 1.848 9.126 2.255 L6.479 2.255 C6.156 2.255 5.893 2.518 5.893 2.841 L5.893 4.18 17.107 4.18 Z"
              fill-opacity="1" stroke="none"></path>
        <path id="Path-2" d="M18.99 5.938 C18.99 5.614 18.727 5.352 18.404 5.352 L4.596 5.352 C4.273 5.352 4.01 5.614 4.01 5.938 L4.01 7.276 18.99 7.276 18.99 5.938 Z"
              fill-opacity="1" stroke="none"></path>
        <path id="Path-3" d="M13.424 13.469 L18.99 13.469 18.99 14.807 13.424 14.807 Z" fill-opacity="1" stroke="none"></path>
        <path id="Path-4" d="M13.424 15.979 L18.99 15.979 18.99 18.656 13.424 18.656 Z" fill-opacity="1" stroke="none"></path>
        <path id="Path-5" d="M4.01 15.979 L9.576 15.979 9.576 18.656 4.01 18.656 Z" fill-opacity="1" stroke="none"></path>
        <path id="Path-6"
              d="M11.5 10.958 C12.357 10.958 13.084 11.521 13.333 12.297 L18.99 12.297 18.99 8.448 4.01 8.448 4.01 12.297 9.667 12.297 C9.916 11.521 10.643 10.958 11.5 10.958 Z M15.893 9.786 C16.216 9.786 16.479 10.049 16.479 10.372 16.479 10.696 16.216 10.958 15.893 10.958 15.57 10.958 15.307 10.696 15.307 10.372 15.307 10.049 15.57 9.786 15.893 9.786 Z M7.107 10.922 C6.783 10.922 6.521 10.659 6.521 10.336 6.521 10.013 6.783 9.75 7.107 9.75 7.43 9.75 7.693 10.013 7.693 10.336 7.693 10.659 7.43 10.922 7.107 10.922 Z"
              fill-opacity="1" stroke="none"></path>
        <path id="Path-7" d="M4.01 13.469 L9.576 13.469 9.576 14.807 4.01 14.807 Z" fill-opacity="1" stroke="none"></path>
    </g>
</svg>
